<?xml version="1.0" encoding="utf-8"?>
<!-- Generator: Adobe Illustrator 16.0.0, SVG Export Plug-In . SVG Version: 6.00 Build 0)  -->
<!DOCTYPE svg PUBLIC "-//W3C//DTD SVG 1.1//EN" "http://www.w3.org/Graphics/SVG/1.1/DTD/svg11.dtd">
<svg version="1.1" id="레이어_1" xmlns="http://www.w3.org/2000/svg" xmlns:xlink="http://www.w3.org/1999/xlink" x="0px"
	 y="0px" width="269.333px" height="51.273px" viewBox="0 0 269.333 51.273" enable-background="new 0 0 269.333 51.273"
	 xml:space="preserve">
<path fill="#FFFFFF" d="M99.736,31.405v3.53H71.628v-3.53H99.736z M90.795,28.898c0.198-1.056,0.368-2.051,0.511-2.985
	s0.258-1.897,0.347-2.887l-16.924,0.23l-0.099-3.596l17.188-0.23c0.021-0.308,0.033-0.627,0.033-0.957s0-0.671,0-1.022v-3.2H75.159
	v-3.596h20.816v5.707c0,1.496-0.022,2.832-0.066,4.008c-0.044,1.177-0.11,2.271-0.198,3.283c-0.088,1.012-0.204,1.974-0.346,2.887
	c-0.144,0.912-0.303,1.863-0.479,2.854L90.795,28.898z"/>
<path fill="#FFFFFF" d="M105.355,29.941h3.65c1.35,0,2.722-0.04,4.117-0.12c1.394-0.08,2.713-0.217,3.957-0.413l0.213,1.626
	c-1.421,0.23-2.874,0.386-4.356,0.466c-1.483,0.08-2.954,0.12-4.41,0.12h-5.036v-9.326h8.819v-5.355h-8.819v-1.652h10.685v8.66
	h-8.819V29.941z M121.716,37.668h-1.892V13.314h1.892V37.668z"/>
<path fill="#FFFFFF" d="M131.787,31.54c-1.776,0-3.086-0.608-3.93-1.825s-1.266-2.971-1.266-5.263v-2.078
	c0-2.292,0.422-4.046,1.266-5.263s2.154-1.825,3.93-1.825s3.086,0.608,3.93,1.825s1.266,2.971,1.266,5.263v0.133h3.277v-8.686h1.865
	V36.47h-1.865V24.186h-3.277v0.267c0,2.292-0.422,4.046-1.266,5.263S133.563,31.54,131.787,31.54z M131.787,17.019
	c-1.19,0-2.051,0.471-2.584,1.412c-0.533,0.941-0.799,2.327-0.799,4.156v1.652c0,1.83,0.267,3.215,0.799,4.156
	c0.533,0.942,1.395,1.412,2.584,1.412s2.052-0.47,2.585-1.412c0.533-0.941,0.799-2.326,0.799-4.156v-1.652
	c0-1.829-0.267-3.215-0.799-4.156C133.838,17.489,132.977,17.019,131.787,17.019z M146.815,37.668h-1.865V13.314h1.865V37.668z"/>
<path fill="#FFFFFF" d="M163.495,24.612c0,2.238-0.529,3.979-1.585,5.223c-1.057,1.243-2.536,1.865-4.437,1.865
	s-3.38-0.622-4.437-1.865c-1.057-1.243-1.585-2.984-1.585-5.223v-2.531c0-2.238,0.528-3.975,1.585-5.209
	c1.057-1.234,2.536-1.853,4.437-1.853s3.379,0.622,4.437,1.865c1.057,1.244,1.585,2.984,1.585,5.223V24.612z M161.656,22.428
	c0-1.013-0.103-1.874-0.307-2.585c-0.205-0.71-0.489-1.292-0.853-1.745c-0.364-0.453-0.804-0.786-1.319-0.999
	c-0.516-0.214-1.084-0.32-1.706-0.32c-0.622,0-1.19,0.106-1.705,0.32c-0.516,0.213-0.955,0.546-1.319,0.999
	c-0.365,0.453-0.649,1.035-0.853,1.745c-0.204,0.711-0.306,1.572-0.306,2.585v1.864c0,1.013,0.102,1.879,0.306,2.599
	c0.204,0.719,0.488,1.306,0.853,1.759c0.364,0.452,0.803,0.785,1.319,0.999c0.515,0.213,1.083,0.319,1.705,0.319
	c0.622,0,1.19-0.106,1.706-0.319c0.515-0.214,0.955-0.547,1.319-0.999c0.364-0.453,0.648-1.04,0.853-1.759
	c0.204-0.72,0.307-1.586,0.307-2.599V22.428z M170.209,37.668h-1.892V13.314h1.892V37.668z"/>
<path fill="#FFFFFF" d="M187.235,15.286v1.679h-9.219v5.383h8.287v1.679h-8.287v5.702h3.411c1.243,0,2.54-0.04,3.89-0.12
	c1.35-0.08,2.745-0.227,4.184-0.439l0.213,1.679c-1.439,0.23-2.904,0.386-4.396,0.466s-2.949,0.12-4.37,0.12h-4.823V15.286H187.235z
	 M192.804,22.268v-8.953h1.865v24.354h-1.865V23.973h-4.929v-1.705H192.804z"/>
<path fill="#FFFFFF" d="M209.848,12.49h14.351v3.53h-10.193v5.014h9.501v3.53h-9.501v5.146h2.111c1.583,0,3.276-0.038,5.08-0.115
	c1.803-0.077,3.485-0.226,5.048-0.446l0.429,3.497c-0.771,0.132-1.616,0.237-2.54,0.313c-0.924,0.077-1.887,0.138-2.887,0.182
	c-1.001,0.044-2.019,0.071-3.052,0.082c-1.034,0.012-2.057,0.017-3.068,0.017h-5.278V12.49z M232.644,21.067h4.223v3.629h-4.223
	v16.099h-4.189v-30.68h4.189V21.067z"/>
<path fill="#FFFFFF" d="M260.676,27.864v1.599h-9.965v5.036h-1.865v-5.036h-10.552v-1.599H260.676z M243.517,37.724h14.361v1.651
	h-16.253v-7.194h1.892V37.724z M249.486,25.626c-1.066,0-2.065-0.102-2.998-0.306s-1.741-0.497-2.425-0.88
	c-0.684-0.382-1.226-0.839-1.625-1.372c-0.4-0.533-0.6-1.137-0.6-1.812v-1.013c0-0.657,0.199-1.257,0.6-1.799
	c0.399-0.542,0.941-1.003,1.625-1.386c0.684-0.382,1.492-0.675,2.425-0.879s1.932-0.307,2.998-0.307
	c1.065,0,2.064,0.103,2.997,0.307s1.741,0.497,2.425,0.879c0.684,0.383,1.226,0.844,1.625,1.386c0.4,0.542,0.6,1.142,0.6,1.799
	v1.013c0,0.675-0.199,1.278-0.6,1.812c-0.399,0.533-0.941,0.99-1.625,1.372c-0.684,0.383-1.492,0.676-2.425,0.88
	S250.551,25.626,249.486,25.626z M249.486,17.473c-0.765,0-1.497,0.071-2.198,0.213c-0.702,0.143-1.324,0.343-1.865,0.6
	c-0.542,0.258-0.973,0.564-1.293,0.92c-0.319,0.355-0.479,0.746-0.479,1.172v0.746c0,0.427,0.16,0.817,0.479,1.173
	c0.32,0.355,0.751,0.662,1.293,0.919c0.541,0.258,1.163,0.458,1.865,0.6c0.701,0.143,1.434,0.213,2.198,0.213
	c0.764,0,1.496-0.07,2.198-0.213c0.701-0.142,1.322-0.342,1.865-0.6c0.541-0.257,0.972-0.563,1.292-0.919
	c0.319-0.355,0.479-0.746,0.479-1.173v-0.746c0-0.426-0.16-0.816-0.479-1.172c-0.32-0.355-0.751-0.662-1.292-0.92
	c-0.543-0.257-1.164-0.457-1.865-0.6C250.982,17.544,250.25,17.473,249.486,17.473z"/>
<g>
	<path fill="#FFFFFF" d="M29.044,42C27.388,42,26,40.815,26,39.158V34H12.88C11.223,34,10,32.667,10,31.01v-3.271
		c-1,0.001-0.712,0.002-1.111,0.002c-1.657,0-2.889-1.343-2.889-3v-3.364c0-1.636,1-2.965,3-3v-2.227c-2-0.133-3-1.42-3-2.989V9.798
		C6,8.141,7.198,7,8.855,7h17.056c0.144,0,0.285-0.148,0.423-0.129C26.816,5.858,27.849,5,29.044,5h4.157
		C34.858,5,36,6.458,36,8.115v17.979c0,0.238-0.028,0.471-0.081,0.693C35.972,27.009,36,27.241,36,27.479v11.679
		C36,40.815,34.858,42,33.201,42H29.044z"/>
	<path fill="#FFFFFF" d="M8.657,21.377h2.936v-8.215H8.855V9.798h17.056v3.364h-2.639v7.918c0.572-0.044,1.138-0.083,1.699-0.116
		c0.561-0.032,1.149-0.07,1.765-0.115l0.264,3.267c-1.298,0.11-2.716,0.209-4.255,0.297c-1.54,0.088-3.118,0.153-4.734,0.197
		c-1.617,0.045-3.228,0.077-4.833,0.1c-1.606,0.021-3.112,0.032-4.52,0.032V21.377z M12.88,27.479h20.321v11.679h-4.157V31.01H12.88
		V27.479z M19.247,21.245v-8.083h-3.629v8.182L19.247,21.245z M33.201,26.094h-4.157V8.115h4.157V26.094z"/>
	<path d="M8.657,21.377h2.936v-8.215H8.855V9.798h17.056v3.364h-2.639v7.918c0.572-0.044,1.138-0.083,1.699-0.116
		c0.561-0.032,1.149-0.07,1.765-0.115l0.264,3.267c-1.298,0.11-2.716,0.209-4.255,0.297c-1.54,0.088-3.118,0.153-4.734,0.197
		c-1.617,0.045-3.228,0.077-4.833,0.1c-1.606,0.021-3.112,0.032-4.52,0.032V21.377z M12.88,27.479h20.321v11.679h-4.157V31.01H12.88
		V27.479z M19.247,21.245v-8.083h-3.629v8.182L19.247,21.245z M33.201,26.094h-4.157V8.115h4.157V26.094z"/>
</g>
<g>
	<path fill="#FFFFFF" d="M43.025,46C41.369,46,40,44.405,40,42.748v-6.182c0-0.502,0.136-0.975,0.354-1.391
		c-0.299-0.466-0.467-1.021-0.468-1.615c-0.416,0.204-0.863,0.304-1.312,0.304c-0.835,0-1.662-0.346-2.255-1.021l-1.146-1.306
		c-0.535-0.609-0.799-1.409-0.735-2.217c0.064-0.808,0.454-1.556,1.078-2.072c0.609-0.504,1.218-1.019,1.828-1.54
		c0.544-0.467,1.05-0.941,1.499-1.406c0.401-0.418,0.621-0.683,0.733-0.83c0.098-0.128,0.253-0.204,0.262-0.224
		C39.87,22.902,40,22.558,40,22.151v-3.064C40,17.43,41.102,16,42.759,16h1.865C46.281,16,48,17.43,48,19.087v0.817
		C48,19.899,47.755,20,47.821,20H49v-1.365C49,16.978,50.055,16,51.712,16h1.838c0.407,0,0.795-0.259,1.148-0.112
		C55.188,15.542,55.784,15,56.428,15h1.839C59.923,15,61,16.658,61,18.314v12.177c0,0.248-0.03,0.489-0.087,0.72
		C60.97,31.441,61,31.683,61,31.931v6.208c0,0.34,0.124,0.667,0.02,0.971c0.496,0.535,0.98,1.252,0.98,2.04v1.599
		C62,44.405,60.563,46,58.906,46H43.025z"/>
	<path fill="#FFFFFF" d="M48.248,30.012c-0.516-0.426-1.031-0.87-1.545-1.332c-0.516-0.462-1.004-0.906-1.466-1.332
		c-0.426-0.409-0.764-0.742-1.012-0.999c-0.249-0.258-0.409-0.458-0.48-0.6h-0.026c-0.125,0.337-0.604,0.924-1.439,1.758
		c-0.479,0.48-1.048,1.018-1.706,1.612c-0.657,0.596-1.323,1.177-1.998,1.745l-1.146-1.306c0.622-0.515,1.243-1.039,1.865-1.571
		c0.622-0.533,1.19-1.066,1.706-1.6c0.408-0.426,0.728-0.79,0.959-1.092c0.23-0.302,0.409-0.604,0.533-0.906
		c0.124-0.302,0.2-0.626,0.226-0.973c0.027-0.347,0.04-0.768,0.04-1.266v-3.064h1.865v2.984c0,0.479,0.013,0.884,0.04,1.213
		s0.093,0.631,0.2,0.905c0.106,0.276,0.275,0.56,0.506,0.854c0.23,0.293,0.55,0.635,0.959,1.025c0.39,0.373,0.861,0.804,1.412,1.292
		c0.55,0.489,1.092,0.946,1.625,1.372L48.248,30.012z M58.267,31.931v6.208H44.864v3.011h14.042v1.599h-15.88v-6.182h13.402v-3.011
		H42.892v-1.625H58.267z M51.712,22.897v-4.263h1.838v11.804h-1.838V24.55h-3.891v-1.652H51.712z M58.267,30.491h-1.839V18.314
		h1.839V30.491z"/>
	<path d="M48.248,30.012c-0.516-0.426-1.031-0.87-1.545-1.332c-0.516-0.462-1.004-0.906-1.466-1.332
		c-0.426-0.409-0.764-0.742-1.012-0.999c-0.249-0.258-0.409-0.458-0.48-0.6h-0.026c-0.125,0.337-0.604,0.924-1.439,1.758
		c-0.479,0.48-1.048,1.018-1.706,1.612c-0.657,0.596-1.323,1.177-1.998,1.745l-1.146-1.306c0.622-0.515,1.243-1.039,1.865-1.571
		c0.622-0.533,1.19-1.066,1.706-1.6c0.408-0.426,0.728-0.79,0.959-1.092c0.23-0.302,0.409-0.604,0.533-0.906
		c0.124-0.302,0.2-0.626,0.226-0.973c0.027-0.347,0.04-0.768,0.04-1.266v-3.064h1.865v2.984c0,0.479,0.013,0.884,0.04,1.213
		s0.093,0.631,0.2,0.905c0.106,0.276,0.275,0.56,0.506,0.854c0.23,0.293,0.55,0.635,0.959,1.025c0.39,0.373,0.861,0.804,1.412,1.292
		c0.55,0.489,1.092,0.946,1.625,1.372L48.248,30.012z M58.267,31.931v6.208H44.864v3.011h14.042v1.599h-15.88v-6.182h13.402v-3.011
		H42.892v-1.625H58.267z M51.712,22.897v-4.263h1.838v11.804h-1.838V24.55h-3.891v-1.652H51.712z M58.267,30.491h-1.839V18.314
		h1.839V30.491z"/>
</g>
<g>
	<path fill="#FFFFFF" d="M71.628,42C69.972,42,69,40.592,69,38.936v-3.53C69,33.749,69.972,32,71.628,32h16.208
		c0.003,0,0.007,0.162,0.011,0.142c0.148-0.792,0.281-1.449,0.397-2.17c0,0-13.502,0.234-13.516,0.234
		c-1.622,0-2.953-1.266-2.998-2.893l-0.099-3.583c-0.022-0.802,0.279-1.574,0.835-2.153c0.327-0.341,0.647-0.593,1.084-0.747
		C72.67,20.307,72,19.35,72,18.251v-3.596C72,12.999,73.502,12,75.159,12h20.816C97.631,12,99,12.999,99,14.655v5.707
		c0,1.526-0.036,2.913-0.081,4.12c-0.045,1.21-0.121,2.364-0.213,3.429c-0.094,1.079-0.222,1.915-0.374,2.889
		c-0.072,0.458-0.151,1.2-0.231,1.2h1.635c1.657,0,3.264,1.749,3.264,3.405v3.53c0,1.657-1.607,3.064-3.264,3.064H71.628z"/>
	<path d="M99.736,35.405v3.53H71.628v-3.53H99.736z M90.795,32.898c0.198-1.056,0.368-2.051,0.511-2.985s0.258-1.897,0.347-2.887
		l-16.924,0.23l-0.099-3.596l17.188-0.23c0.021-0.308,0.033-0.627,0.033-0.957s0-0.671,0-1.022v-3.2H75.159v-3.596h20.816v5.707
		c0,1.496-0.022,2.832-0.066,4.008c-0.044,1.177-0.11,2.271-0.198,3.283c-0.088,1.012-0.204,1.974-0.346,2.887
		c-0.144,0.912-0.303,1.863-0.479,2.854L90.795,32.898z"/>
</g>
<g>
	<path fill="#FFFFFF" d="M119.824,37c-1.657,0-2.824-1.675-2.824-3.332v-3.53c-1,0.17-2.559,0.479-3.814,0.547
		C111.656,30.768,110.03,31,108.526,31h-5.036c-1.657,0-3.49-1.723-3.49-3.38v-9.326c0-1.169,0.669-2.183,1.646-2.678
		c-0.977-0.495-1.646-1.508-1.646-2.678v-1.652C100,9.629,101.833,8,103.49,8h10.685C115.322,8,116,8.93,117,9.876V9.314
		C117,7.658,118.167,6,119.824,6h1.892C123.373,6,125,7.658,125,9.314v24.354c0,1.657-1.627,3.332-3.284,3.332H119.824z
		 M116.824,21.356c-0.278,0.521-0.706,0.952-1.226,1.232c0.346-0.043,0.684-0.091,1.014-0.143c0.071-0.011,0.142-0.02,0.212-0.026
		V21.356z"/>
	<path d="M105.355,25.941h3.65c1.35,0,2.722-0.04,4.117-0.12c1.394-0.08,2.713-0.217,3.957-0.413l0.213,1.626
		c-1.421,0.23-2.874,0.386-4.356,0.466c-1.483,0.08-2.954,0.12-4.41,0.12h-5.036v-9.326h8.819v-5.355h-8.819v-1.652h10.685v8.66
		h-8.819V25.941z M121.716,33.668h-1.892V9.314h1.892V33.668z"/>
</g>
<g>
	<path fill="#FFFFFF" d="M144.95,41c-0.993,0-1.873-0.883-2.419-1.626c-0.133,0.018-0.268-0.374-0.405-0.374h-1.865
		c-1.657,0-3.26-0.874-3.26-2.53v-3.96c-1,1.077-2.718,2.03-5.344,2.03c-3.5,0-5.14-1.694-6.125-3.116
		c-1.211-1.747-1.531-4.028-1.531-6.972v-2.078c0-2.944,0.384-5.225,1.596-6.972c0.986-1.421,2.663-3.116,6.163-3.116
		c2.626,0,4.241,0.954,5.241,2.03v-0.495c0-1.657,1.604-2.821,3.26-2.821h1.865c0.331,0,0.649-0.193,0.947-0.094
		c0.514-0.413,1.167-0.906,1.877-0.906h1.865c1.657,0,3.185,1.658,3.185,3.314v24.354c0,1.657-1.528,3.332-3.185,3.332H144.95z
		 M131.814,27c0.133,0,0.186-1.23,0.186-2.761v-1.652c0-1.547-0.058-2.587-0.185-2.587c-0.009,0-0.047,0-0.056,0
		c-0.133,0-0.76,1.055-0.76,2.587v1.652c0,1.547,0.631,2.761,0.758,2.761C131.767,27,131.805,27,131.814,27z"/>
	<path d="M131.787,31.54c-1.776,0-3.086-0.608-3.93-1.825s-1.266-2.971-1.266-5.263v-2.078c0-2.292,0.422-4.046,1.266-5.263
		s2.154-1.825,3.93-1.825s3.086,0.608,3.93,1.825s1.266,2.971,1.266,5.263v0.133h3.277v-8.686h1.865V36.47h-1.865V24.186h-3.277
		v0.267c0,2.292-0.422,4.046-1.266,5.263S133.563,31.54,131.787,31.54z M131.787,17.019c-1.19,0-2.051,0.471-2.584,1.412
		c-0.533,0.941-0.799,2.327-0.799,4.156v1.652c0,1.83,0.267,3.215,0.799,4.156c0.533,0.942,1.395,1.412,2.584,1.412
		s2.052-0.47,2.585-1.412c0.533-0.941,0.799-2.326,0.799-4.156v-1.652c0-1.829-0.267-3.215-0.799-4.156
		C133.838,17.489,132.977,17.019,131.787,17.019z M146.815,37.668h-1.865V13.314h1.865V37.668z"/>
</g>
<g>
	<path fill="#FFFFFF" d="M168.317,39c-1.657,0-3.317-1.675-3.317-3.332v-7.576c0,0.611-0.528,1.174-0.964,1.686
		c-1.134,1.333-3.141,2.922-6.643,2.922c-3.503,0-5.775-1.589-6.908-2.922c-1.526-1.794-2.485-4.205-2.485-7.166v-2.531
		c0-2.964,1.002-5.373,2.532-7.16c1.133-1.323,3.33-2.901,6.828-2.901c3.502,0,5.486,1.589,6.62,2.922
		c0.436,0.513,1.02,1.076,1.02,1.688v-3.314C165,9.658,166.661,8,168.317,8h1.892C171.866,8,173,9.658,173,11.314v24.354
		c0,1.657-1.134,3.332-2.791,3.332H168.317z M157.473,17.778c-0.223,0-0.409,0.03-0.554,0.091c-0.032,0.013-0.067,0.027-0.131,0.106
		c-0.053,0.066-0.328,0.258-0.454,0.696c-0.086,0.3-0.334,0.85-0.334,1.756v1.864c0,0.911,0.249,1.471,0.337,1.78
		c0.126,0.444,0.327,0.635,0.376,0.696c0.066,0.082,0.14,0.098,0.167,0.109c0.144,0.06,0.35,0.09,0.574,0.09
		s0.421-0.031,0.569-0.092c0.021-0.008,0.066-0.025,0.132-0.108c0.047-0.058,0.35-0.25,0.478-0.698
		c0.087-0.308,0.366-0.868,0.366-1.777v-1.864c0-0.905-0.275-1.455-0.362-1.757c-0.126-0.437-0.344-0.631-0.395-0.695
		c-0.063-0.079-0.144-0.094-0.169-0.105C157.926,17.809,157.695,17.778,157.473,17.778z"/>
	<path d="M163.495,22.612c0,2.238-0.529,3.979-1.585,5.223c-1.057,1.243-2.536,1.865-4.437,1.865s-3.38-0.622-4.437-1.865
		c-1.057-1.243-1.585-2.984-1.585-5.223v-2.531c0-2.238,0.528-3.975,1.585-5.209c1.057-1.234,2.536-1.853,4.437-1.853
		s3.379,0.622,4.437,1.865c1.057,1.244,1.585,2.984,1.585,5.223V22.612z M161.656,20.428c0-1.013-0.103-1.874-0.307-2.585
		c-0.205-0.71-0.489-1.292-0.853-1.745c-0.364-0.453-0.804-0.786-1.319-0.999c-0.516-0.214-1.084-0.32-1.706-0.32
		c-0.622,0-1.19,0.106-1.705,0.32c-0.516,0.213-0.955,0.546-1.319,0.999c-0.365,0.453-0.649,1.035-0.853,1.745
		c-0.204,0.711-0.306,1.572-0.306,2.585v1.864c0,1.013,0.102,1.879,0.306,2.599c0.204,0.719,0.488,1.306,0.853,1.759
		c0.364,0.452,0.803,0.785,1.319,0.999c0.515,0.213,1.083,0.319,1.705,0.319c0.622,0,1.19-0.106,1.706-0.319
		c0.515-0.214,0.955-0.547,1.319-0.999c0.364-0.453,0.648-1.04,0.853-1.759c0.204-0.72,0.307-1.586,0.307-2.599V20.428z
		 M170.209,35.668h-1.892V11.314h1.892V35.668z"/>
</g>
<g>
	<path fill="#FFFFFF" d="M192.804,35c-1.657,0-2.804-1.675-2.804-3.332V27.87c-2,0.213-2.967,0.145-4.425,0.223
		c-1.538,0.083-3.16-0.092-4.628-0.092h-4.823c-1.657,0-3.125-0.91-3.125-2.566V9.286C173,7.629,174.468,6,176.125,6h11.111
		C188.325,6,189,6.867,190,7.736V7.314C190,5.658,191.147,4,192.804,4h1.865C196.326,4,198,5.658,198,7.314v24.354
		c0,1.657-1.674,3.332-3.331,3.332H192.804z M189.804,13.268v-0.752c-0.172,0.286-0.391,0.54-0.646,0.752H189.804z"/>
	<path d="M187.235,9.286v1.679h-9.219v5.383h8.287v1.679h-8.287v5.702h3.411c1.243,0,2.54-0.04,3.89-0.12
		c1.35-0.08,2.745-0.227,4.184-0.439l0.213,1.679c-1.439,0.23-2.904,0.386-4.396,0.466s-2.949,0.12-4.37,0.12h-4.823V9.286H187.235z
		 M192.804,16.268V7.314h1.865v24.354h-1.865V17.973h-4.929v-1.705H192.804z"/>
</g>
<g>
	<path fill="#FFFFFF" d="M228.455,44c-1.657,0-3.455-1.548-3.455-3.205v-4.95c0,0.04-0.481,0.074-0.848,0.104
		c-0.958,0.08-1.847,0.143-2.888,0.189c-1.034,0.045-2.028-0.046-3.095-0.035c-1.043,0.012-2.02-0.104-3.043-0.104h-5.278
		c-1.657,0-2.848-1.103-2.848-2.76V12.49c0-1.657,1.191-3.49,2.848-3.49h14.351c0.456,0,0.888,0.289,1.275,0.471
		C225.643,7.975,226.913,7,228.455,7h4.189C234.301,7,236,8.458,236,10.115V18h0.867c1.657,0,3.133,1.411,3.133,3.067v3.629
		c0,1.657-1.477,3.304-3.133,3.304H236v12.795c0,1.657-1.699,3.205-3.356,3.205H228.455z"/>
	<path d="M209.848,12.49h14.351v3.53h-10.193v5.014h9.501v3.53h-9.501v5.146h2.111c1.583,0,3.276-0.038,5.08-0.115
		c1.803-0.077,3.485-0.226,5.048-0.446l0.429,3.497c-0.771,0.132-1.616,0.237-2.54,0.313c-0.924,0.077-1.887,0.138-2.887,0.182
		c-1.001,0.044-2.019,0.071-3.052,0.082c-1.034,0.012-2.057,0.017-3.068,0.017h-5.278V12.49z M232.644,21.067h4.223v3.629h-4.223
		v16.099h-4.189v-30.68h4.189V21.067z"/>
</g>
<g>
	<path fill="#FFFFFF" d="M241.625,45c-1.657,0-2.625-0.968-2.625-2.625V35h-0.706c-1.657,0-3.294-0.88-3.294-2.537v-1.599
		c0-1.657,1.638-2.864,3.294-2.864h1.741c-0.782-1-1.035-2.427-1.035-3.743v-1.013c0-1.292,0.329-2.531,1.105-3.582
		c0.649-0.88,1.475-1.628,2.532-2.221c0.94-0.525,2.012-0.926,3.229-1.192c1.14-0.25,2.355-0.376,3.63-0.376
		c1.274,0,2.493,0.126,3.633,0.376c1.216,0.266,2.306,0.667,3.244,1.19c1.06,0.594,1.859,1.342,2.51,2.225
		c0.774,1.048,1.117,2.287,1.117,3.579v1.013c0,1.315-0.281,2.743-1.064,3.743h1.741c1.657,0,3.324,1.208,3.324,2.864v1.599
		c0,1.657-1.667,2.537-3.324,2.537H254v2.499c0,0.076-0.292,0.501-0.297,0.501h4.175c1.657,0,3.122,1.067,3.122,2.724v1.651
		c0,1.657-1.465,2.625-3.122,2.625H241.625z M247.371,23.75c0.16,0.046,0.33,0.087,0.51,0.123c0.503,0.103,1.042,0.154,1.605,0.154
		c0.563,0,1.102-0.051,1.601-0.153c0.181-0.037,0.353-0.078,0.513-0.124c-0.161-0.046-0.332-0.088-0.513-0.125
		c-0.501-0.101-1.041-0.153-1.601-0.153c-0.56,0-1.1,0.052-1.604,0.153C247.702,23.663,247.531,23.704,247.371,23.75z"/>
	<path d="M260.676,30.864v1.599h-9.965v5.036h-1.865v-5.036h-10.552v-1.599H260.676z M243.517,40.724h14.361v1.651h-16.253v-7.194
		h1.892V40.724z M249.486,28.626c-1.066,0-2.065-0.102-2.998-0.306s-1.741-0.497-2.425-0.88c-0.684-0.382-1.226-0.839-1.625-1.372
		c-0.4-0.533-0.6-1.137-0.6-1.812v-1.013c0-0.657,0.199-1.257,0.6-1.799c0.399-0.542,0.941-1.003,1.625-1.386
		c0.684-0.382,1.492-0.675,2.425-0.879s1.932-0.307,2.998-0.307c1.065,0,2.064,0.103,2.997,0.307s1.741,0.497,2.425,0.879
		c0.684,0.383,1.226,0.844,1.625,1.386c0.4,0.542,0.6,1.142,0.6,1.799v1.013c0,0.675-0.199,1.278-0.6,1.812
		c-0.399,0.533-0.941,0.99-1.625,1.372c-0.684,0.383-1.492,0.676-2.425,0.88S250.551,28.626,249.486,28.626z M249.486,20.473
		c-0.765,0-1.497,0.071-2.198,0.213c-0.702,0.143-1.324,0.343-1.865,0.6c-0.542,0.258-0.973,0.564-1.293,0.92
		c-0.319,0.355-0.479,0.746-0.479,1.172v0.746c0,0.427,0.16,0.817,0.479,1.173c0.32,0.355,0.751,0.662,1.293,0.919
		c0.541,0.258,1.163,0.458,1.865,0.6c0.701,0.143,1.434,0.213,2.198,0.213c0.764,0,1.496-0.07,2.198-0.213
		c0.701-0.142,1.322-0.342,1.865-0.6c0.541-0.257,0.972-0.563,1.292-0.919c0.319-0.355,0.479-0.746,0.479-1.173v-0.746
		c0-0.426-0.16-0.816-0.479-1.172c-0.32-0.355-0.751-0.662-1.292-0.92c-0.543-0.257-1.164-0.457-1.865-0.6
		C250.982,20.544,250.25,20.473,249.486,20.473z"/>
</g>
</svg>
